<svg width="81" height="80" viewBox="0 0 81 80" fill="none" xmlns="http://www.w3.org/2000/svg">
<path d="M48.4102 47.5377C48.4583 47.3697 48.501 47.2017 48.5385 47.0337C48.501 47.2017 48.4583 47.3748 48.4102 47.5377Z" fill="url(#paint0_linear_2559_29728)"/>
<path d="M48.1641 48.2351C48.2336 48.0671 48.2924 47.894 48.3512 47.7158C48.2924 47.8889 48.2336 48.062 48.1641 48.2351Z" fill="url(#paint1_linear_2559_29728)"/>
<path d="M80.7081 41.9016C80.7081 42.5584 80.6922 43.2152 80.6553 43.8669C80.6869 43.2152 80.7081 42.5635 80.7081 41.9016Z" fill="url(#paint2_linear_2559_29728)"/>
<path d="M48.5967 46.8097C48.6336 46.6366 48.6548 46.4584 48.6759 46.2751C48.6548 46.4533 48.6336 46.6315 48.5967 46.8097Z" fill="url(#paint3_linear_2559_29728)"/>
<path d="M44.1328 52.4254C44.3306 52.3337 44.5231 52.2319 44.7155 52.125C44.5284 52.2319 44.336 52.3337 44.1328 52.4254Z" fill="url(#paint4_linear_2559_29728)"/>
<path d="M47.4688 49.5487C47.581 49.3756 47.6879 49.1923 47.7895 49.009C47.6879 49.1923 47.5864 49.3756 47.4688 49.5487Z" fill="url(#paint5_linear_2559_29728)"/>
<path d="M41.957 53.077C42.1228 53.0515 42.2831 53.0159 42.4435 52.9854C42.2831 53.021 42.1228 53.0566 41.957 53.077Z" fill="url(#paint6_linear_2559_29728)"/>
<path d="M42.7109 52.9293C42.8927 52.8835 43.0691 52.8275 43.2402 52.7715C43.0638 52.8275 42.8873 52.8835 42.7109 52.9293Z" fill="url(#paint7_linear_2559_29728)"/>
<path d="M44.7959 52.0792C44.9937 51.9621 45.1861 51.8399 45.3732 51.7075C45.1861 51.8399 44.9937 51.9672 44.7959 52.0792Z" fill="url(#paint8_linear_2559_29728)"/>
<path d="M45.4209 51.6769C45.6133 51.5394 45.7951 51.3918 45.9769 51.239C45.8005 51.3918 45.6133 51.5394 45.4209 51.6769Z" fill="url(#paint9_linear_2559_29728)"/>
<path d="M41.6097 53.1177C41.46 53.1329 41.3157 53.1533 41.166 53.1584C41.1927 53.1584 41.2195 53.1584 41.2462 53.1584C41.3692 53.1533 41.4868 53.1329 41.6097 53.1177Z" fill="url(#paint10_linear_2559_29728)"/>
<path d="M33.7998 49.4114C33.864 49.5132 33.9334 49.615 33.9976 49.7169C33.9281 49.615 33.864 49.5183 33.7998 49.4114Z" fill="url(#paint11_linear_2559_29728)"/>
<path d="M46.5176 50.73C46.3519 50.898 46.1862 51.0609 46.0098 51.2137C46.1862 51.0609 46.3572 50.898 46.5176 50.73Z" fill="url(#paint12_linear_2559_29728)"/>
<path d="M33.1631 48.1233C33.2059 48.2404 33.254 48.3626 33.3021 48.4746C33.254 48.3575 33.2059 48.2404 33.1631 48.1233Z" fill="url(#paint13_linear_2559_29728)"/>
<path d="M40.9095 53.1636C40.7278 53.1636 40.546 53.1636 40.3643 53.1636C40.546 53.1689 40.7278 53.1689 40.9095 53.1636Z" fill="url(#paint14_linear_2559_29728)"/>
<path d="M32.7461 46.4736C32.7567 46.5602 32.7725 46.6467 32.7883 46.7384C32.7725 46.6518 32.7567 46.5653 32.7461 46.4736Z" fill="url(#paint15_linear_2559_29728)"/>
<path d="M33.0511 48.9888C33.019 48.2404 33.0458 47.8178 33.0458 47.8178C33.0137 47.716 32.9923 47.6142 32.9602 47.5174C32.2599 45.1703 26.6468 29.5349 0.708984 26.3171V41.9068C0.708984 62.9441 18.6174 80.0001 40.7063 80.0001C56.84 80.0001 70.7337 70.8968 77.0578 57.7917C66.8419 78.1519 33.9973 72.0372 33.0511 48.9939V48.9888Z" fill="url(#paint16_linear_2559_29728)"/>
<path d="M77.416 57.0381C78.2232 55.2663 78.8968 53.4284 79.4154 51.5293C78.9235 53.3316 78.2981 55.083 77.5443 56.7683C77.5016 56.8599 77.4588 56.9465 77.416 57.0381Z" fill="url(#paint17_linear_2559_29728)"/>
<path d="M35.9219 51.6567C36.0395 51.7382 36.1517 51.8197 36.2747 51.896C36.1571 51.8197 36.0395 51.7433 35.9219 51.6567Z" fill="url(#paint18_linear_2559_29728)"/>
<path style="mix-blend-mode:overlay" opacity="0.77" d="M36.2695 51.8909C36.3551 51.9469 36.4406 51.9978 36.5315 52.0487C36.4459 51.9978 36.3551 51.9469 36.2695 51.8909Z" fill="url(#paint19_linear_2559_29728)"/>
<path style="mix-blend-mode:overlay" opacity="0.77" d="M33.0459 47.8125C33.078 47.9194 33.1261 48.0212 33.1635 48.1231C33.1261 48.0212 33.0833 47.9194 33.0459 47.8125Z" fill="url(#paint20_linear_2559_29728)"/>
<path style="mix-blend-mode:overlay" opacity="0.77" d="M35.6709 51.4785C35.7511 51.5396 35.8366 51.6007 35.9168 51.6567C35.8313 51.5956 35.7511 51.5396 35.6709 51.4785Z" fill="url(#paint21_linear_2559_29728)"/>
<path style="mix-blend-mode:overlay" opacity="0.77" d="M41.6094 53.1179C41.727 53.1077 41.8446 53.0975 41.9569 53.0771C41.8446 53.0924 41.727 53.1026 41.6094 53.1179Z" fill="url(#paint22_linear_2559_29728)"/>
<path style="mix-blend-mode:overlay" opacity="0.77" d="M37.7178 52.6189C37.7605 52.6342 37.8033 52.6545 37.8514 52.6749C37.8087 52.6596 37.7605 52.6393 37.7178 52.6189Z" fill="url(#paint23_linear_2559_29728)"/>
<path style="mix-blend-mode:overlay" opacity="0.77" d="M34.0029 49.7168C34.0671 49.8084 34.1312 49.9052 34.2007 49.9968C34.1312 49.9052 34.0671 49.8135 34.0029 49.7168Z" fill="url(#paint24_linear_2559_29728)"/>
<path style="mix-blend-mode:overlay" opacity="0.77" d="M33.623 49.1108C33.6819 49.2127 33.7407 49.3145 33.8048 49.4163C33.7407 49.3145 33.6819 49.2178 33.623 49.1108Z" fill="url(#paint25_linear_2559_29728)"/>
<path style="mix-blend-mode:overlay" opacity="0.77" d="M33.3027 48.4746C33.3508 48.5815 33.4043 48.6884 33.4578 48.7903C33.4043 48.6834 33.3508 48.5815 33.3027 48.4746Z" fill="url(#paint26_linear_2559_29728)"/>
<path style="mix-blend-mode:overlay" opacity="0.77" d="M39.3057 53.0515C39.3965 53.0668 39.4874 53.077 39.5836 53.0922C39.4928 53.0821 39.3965 53.0668 39.3057 53.0515Z" fill="url(#paint27_linear_2559_29728)"/>
<path style="mix-blend-mode:overlay" opacity="0.77" d="M34.4512 50.3074C34.5153 50.3837 34.5741 50.4601 34.6436 50.5365C34.5741 50.4652 34.5153 50.3837 34.4512 50.3074Z" fill="url(#paint28_linear_2559_29728)"/>
<path style="mix-blend-mode:overlay" opacity="0.77" d="M36.9268 52.2676C37.0069 52.3083 37.0925 52.3541 37.1727 52.3949C37.0871 52.3541 37.0069 52.3134 36.9268 52.2676Z" fill="url(#paint29_linear_2559_29728)"/>
<path style="mix-blend-mode:overlay" opacity="0.77" d="M48.3457 47.7209C48.3668 47.6598 48.3932 47.5987 48.4091 47.5376C48.3879 47.5987 48.3668 47.6598 48.3457 47.7209Z" fill="url(#paint30_linear_2559_29728)"/>
<path style="mix-blend-mode:overlay" opacity="0.77" d="M79.4414 51.4478C79.4362 51.4732 79.4256 51.5038 79.415 51.5292C79.4203 51.5038 79.4309 51.4732 79.4414 51.4478Z" fill="url(#paint31_linear_2559_29728)"/>
<path style="mix-blend-mode:overlay" opacity="0.77" d="M80.4999 45.8015C80.484 45.9644 80.4576 46.1223 80.4365 46.2801C80.4576 46.1172 80.484 45.9593 80.4999 45.8015Z" fill="url(#paint32_linear_2559_29728)"/>
<path style="mix-blend-mode:overlay" opacity="0.77" d="M46.544 50.7046C46.544 50.7046 46.5229 50.7199 46.5176 50.73C46.5281 50.7199 46.5387 50.7148 46.544 50.7046Z" fill="url(#paint33_linear_2559_29728)"/>
<path style="mix-blend-mode:overlay" opacity="0.77" d="M35.334 51.1984C35.2645 51.1373 35.1896 51.0813 35.1201 51.0151C35.1896 51.0762 35.2645 51.1373 35.334 51.1984Z" fill="url(#paint34_linear_2559_29728)"/>
<path style="mix-blend-mode:overlay" opacity="0.77" d="M77.0635 57.7865C77.1864 57.5421 77.304 57.2876 77.4216 57.0381C77.3094 57.2876 77.1864 57.537 77.0635 57.7865Z" fill="url(#paint35_linear_2559_29728)"/>
<path style="mix-blend-mode:overlay" opacity="0.77" d="M41.1663 53.1587C41.0808 53.1587 40.9952 53.1587 40.915 53.164C40.9792 53.164 41.038 53.164 41.1021 53.164C41.1235 53.164 41.1449 53.164 41.1663 53.1587Z" fill="url(#paint36_linear_2559_29728)"/>
<path style="mix-blend-mode:overlay" opacity="0.77" d="M45.9775 51.2391C45.9775 51.2391 45.9987 51.2238 46.0039 51.2136C45.9934 51.2238 45.9828 51.2289 45.9775 51.2391Z" fill="url(#paint37_linear_2559_29728)"/>
<path style="mix-blend-mode:overlay" opacity="0.77" d="M45.3789 51.7075C45.3789 51.7075 45.4106 51.6872 45.4264 51.677C45.4106 51.6872 45.3947 51.6974 45.3789 51.7075Z" fill="url(#paint38_linear_2559_29728)"/>
<path style="mix-blend-mode:overlay" opacity="0.77" d="M44.0049 52.4813C44.0476 52.4609 44.0958 52.4457 44.1385 52.4253C44.0958 52.4457 44.053 52.4609 44.0049 52.4813Z" fill="url(#paint39_linear_2559_29728)"/>
<path style="mix-blend-mode:overlay" opacity="0.77" d="M47.4209 49.6099C47.4209 49.6099 47.4526 49.5692 47.4684 49.5437C47.4526 49.5641 47.4367 49.5844 47.4209 49.6099Z" fill="url(#paint40_linear_2559_29728)"/>
<path style="mix-blend-mode:overlay" opacity="0.77" d="M47.7891 49.0091C47.8049 48.9734 47.8313 48.9429 47.8471 48.9072C47.8313 48.9429 47.8102 48.9734 47.7891 49.0091Z" fill="url(#paint41_linear_2559_29728)"/>
<path style="mix-blend-mode:overlay" opacity="0.77" d="M46.998 50.1853C46.998 50.1853 47.0192 50.1598 47.0297 50.1445C47.0192 50.1598 47.0086 50.17 46.998 50.1853Z" fill="url(#paint42_linear_2559_29728)"/>
<path style="mix-blend-mode:overlay" opacity="0.77" d="M48.0938 48.3777C48.1149 48.3268 48.1413 48.2809 48.1571 48.2351C48.136 48.286 48.1096 48.3318 48.0938 48.3777Z" fill="url(#paint43_linear_2559_29728)"/>
<path d="M77.5446 56.7684C78.2984 55.0831 78.9238 53.3317 79.4157 51.5294C79.421 51.5039 79.4317 51.4734 79.4424 51.4479C79.5867 50.9184 79.715 50.3838 79.8326 49.8442C79.8487 49.7627 79.8754 49.6812 79.8914 49.5998C79.9984 49.1008 80.0892 48.5968 80.1748 48.0927C80.1961 47.9655 80.2229 47.8433 80.2443 47.716C80.3191 47.2425 80.3779 46.7639 80.4367 46.2853C80.4581 46.1224 80.4848 45.9646 80.5009 45.8067C80.549 45.3332 80.581 44.8597 80.6131 44.3812C80.6238 44.2081 80.6452 44.04 80.6559 43.8669C80.688 43.2153 80.7093 42.5636 80.7093 41.9017V15.2231C80.7093 24.1635 74.273 31.994 65.1263 34.005C57.7598 35.6241 51.2486 35.3644 48.7468 35.171V45.3078C48.7468 45.5624 48.7361 45.8169 48.7093 46.0664C48.704 46.1377 48.688 46.209 48.6773 46.2802C48.6559 46.4584 48.6345 46.6366 48.5971 46.8148C48.581 46.8912 48.5597 46.9625 48.5436 47.0337C48.5062 47.2018 48.4634 47.3749 48.4153 47.5378C48.3939 47.5989 48.3726 47.66 48.3512 47.7211C48.2924 47.8942 48.2336 48.0673 48.1641 48.2404C48.1427 48.2913 48.116 48.3371 48.0999 48.3829C48.0197 48.5611 47.9395 48.7393 47.8487 48.9124C47.8326 48.9481 47.8112 48.9786 47.7899 49.0143C47.6883 49.1976 47.5867 49.3758 47.4691 49.554C47.4531 49.5743 47.437 49.5947 47.421 49.6201C47.2981 49.8034 47.1698 49.9816 47.0308 50.1547C47.0201 50.17 47.0094 50.1802 46.9987 50.1955C46.8544 50.3737 46.7047 50.5468 46.5443 50.7148C46.5336 50.725 46.5229 50.73 46.5176 50.7402C46.3572 50.9082 46.1861 51.0712 46.0097 51.2239C45.999 51.2341 45.9883 51.2392 45.983 51.2494C45.8066 51.4021 45.6195 51.5498 45.427 51.6872C45.411 51.6974 45.3949 51.7076 45.3789 51.7178C45.1918 51.8501 44.9994 51.9774 44.8016 52.0894C44.7748 52.1047 44.7481 52.12 44.7214 52.1353C44.5343 52.2422 44.3418 52.344 44.1387 52.4356C44.0959 52.456 44.0532 52.4713 44.005 52.4916C43.8179 52.5731 43.6308 52.6546 43.4384 52.7208C43.3742 52.7411 43.3047 52.7615 43.2406 52.7819C43.0642 52.8379 42.8878 52.8939 42.7113 52.9397C42.6205 52.9601 42.5296 52.9753 42.4387 52.9957C42.2783 53.0313 42.118 53.067 41.9522 53.0873C41.84 53.1026 41.7224 53.1128 41.6048 53.1281C41.4818 53.1433 41.3642 53.1586 41.2413 53.1688C41.2145 53.1688 41.1878 53.1688 41.1611 53.1688C41.1397 53.1688 41.1183 53.1739 41.0969 53.1739C41.0328 53.1739 40.974 53.1739 40.9098 53.1739C40.7281 53.1739 40.5463 53.1739 40.3645 53.1739C40.2683 53.1739 40.1721 53.1637 40.0759 53.1586C39.9048 53.1484 39.7391 53.1281 39.5734 53.1077C39.4825 53.0975 39.3863 53.0822 39.2954 53.067C39.119 53.0364 38.9479 53.0008 38.7768 52.96C38.702 52.9448 38.6272 52.9295 38.5523 52.9091C38.3118 52.848 38.0765 52.7717 37.8467 52.6902C37.8039 52.6749 37.7558 52.6546 37.713 52.6342C37.5259 52.5629 37.3442 52.4866 37.1678 52.4051C37.0822 52.3644 37.002 52.3236 36.9218 52.2778C36.7882 52.2116 36.6546 52.1403 36.5263 52.064C36.4407 52.0131 36.3498 51.9621 36.2643 51.9061C36.1467 51.8298 36.0291 51.7534 35.9115 51.6669C35.826 51.6058 35.7458 51.5498 35.6656 51.4887C35.548 51.397 35.4411 51.3054 35.3288 51.2086C35.2593 51.1475 35.1845 51.0915 35.115 51.0253C34.9492 50.8726 34.7889 50.7148 34.6392 50.5468C34.5697 50.4755 34.5109 50.394 34.4467 50.3177C34.3612 50.2158 34.2703 50.1089 34.1901 50.002C34.1206 49.9103 34.0565 49.8187 33.9923 49.722C33.9228 49.6201 33.8587 49.5234 33.7945 49.4165C33.7304 49.3147 33.6716 49.2179 33.6128 49.111C33.554 49.0092 33.5005 48.9023 33.4471 48.7953C33.3936 48.6884 33.3402 48.5866 33.292 48.4797C33.2439 48.3626 33.1958 48.2455 33.153 48.1284C33.1156 48.0266 33.0729 47.9247 33.0354 47.8178C33.0354 47.8178 33.0141 48.2404 33.0408 48.9939C33.987 72.0372 66.8316 78.1519 77.0475 57.7917C77.1651 57.5422 77.288 57.2928 77.4056 57.0433C77.4484 56.9516 77.4912 56.8651 77.5339 56.7735L77.5446 56.7684Z" fill="url(#paint44_linear_2559_29728)"/>
<path style="mix-blend-mode:overlay" opacity="0.77" d="M77.5446 56.7684C78.2984 55.0831 78.9238 53.3317 79.4157 51.5294C79.421 51.5039 79.4317 51.4734 79.4424 51.4479C79.5867 50.9184 79.715 50.3838 79.8326 49.8442C79.8487 49.7627 79.8754 49.6812 79.8914 49.5998C79.9984 49.1008 80.0892 48.5968 80.1748 48.0927C80.1961 47.9655 80.2229 47.8433 80.2443 47.716C80.3191 47.2425 80.3779 46.7639 80.4367 46.2853C80.4581 46.1224 80.4848 45.9646 80.5009 45.8067C80.549 45.3332 80.581 44.8597 80.6131 44.3812C80.6238 44.2081 80.6452 44.04 80.6559 43.8669C80.688 43.2153 80.7093 42.5636 80.7093 41.9017V15.2231C80.7093 24.1635 74.273 31.994 65.1263 34.005C57.7598 35.6241 51.2486 35.3644 48.7468 35.171V45.3078C48.7468 45.5624 48.7361 45.8169 48.7093 46.0664C48.704 46.1377 48.688 46.209 48.6773 46.2802C48.6559 46.4584 48.6345 46.6366 48.5971 46.8148C48.581 46.8912 48.5597 46.9625 48.5436 47.0337C48.5062 47.2018 48.4634 47.3749 48.4153 47.5378C48.3939 47.5989 48.3726 47.66 48.3512 47.7211C48.2924 47.8942 48.2336 48.0673 48.1641 48.2404C48.1427 48.2913 48.116 48.3371 48.0999 48.3829C48.0197 48.5611 47.9395 48.7393 47.8487 48.9124C47.8326 48.9481 47.8112 48.9786 47.7899 49.0143C47.6883 49.1976 47.5867 49.3758 47.4691 49.554C47.4531 49.5743 47.437 49.5947 47.421 49.6201C47.2981 49.8034 47.1698 49.9816 47.0308 50.1547C47.0201 50.17 47.0094 50.1802 46.9987 50.1955C46.8544 50.3737 46.7047 50.5468 46.5443 50.7148C46.5336 50.725 46.5229 50.73 46.5176 50.7402C46.3572 50.9082 46.1861 51.0712 46.0097 51.2239C45.999 51.2341 45.9883 51.2392 45.983 51.2494C45.8066 51.4021 45.6195 51.5498 45.427 51.6872C45.411 51.6974 45.3949 51.7076 45.3789 51.7178C45.1918 51.8501 44.9994 51.9774 44.8016 52.0894C44.7748 52.1047 44.7481 52.12 44.7214 52.1353C44.5343 52.2422 44.3418 52.344 44.1387 52.4356C44.0959 52.456 44.0532 52.4713 44.005 52.4916C43.8179 52.5731 43.6308 52.6546 43.4384 52.7208C43.3742 52.7411 43.3047 52.7615 43.2406 52.7819C43.0642 52.8379 42.8878 52.8939 42.7113 52.9397C42.6205 52.9601 42.5296 52.9753 42.4387 52.9957C42.2783 53.0313 42.118 53.067 41.9522 53.0873C41.84 53.1026 41.7224 53.1128 41.6048 53.1281C41.4818 53.1433 41.3642 53.1586 41.2413 53.1688C41.2145 53.1688 41.1878 53.1688 41.1611 53.1688C41.1397 53.1688 41.1183 53.1739 41.0969 53.1739C41.0328 53.1739 40.974 53.1739 40.9098 53.1739C40.7281 53.1739 40.5463 53.1739 40.3645 53.1739C40.2683 53.1739 40.1721 53.1637 40.0759 53.1586C39.9048 53.1484 39.7391 53.1281 39.5734 53.1077C39.4825 53.0975 39.3863 53.0822 39.2954 53.067C39.119 53.0364 38.9479 53.0008 38.7768 52.96C38.702 52.9448 38.6272 52.9295 38.5523 52.9091C38.3118 52.848 38.0765 52.7717 37.8467 52.6902C37.8039 52.6749 37.7558 52.6546 37.713 52.6342C37.5259 52.5629 37.3442 52.4866 37.1678 52.4051C37.0822 52.3644 37.002 52.3236 36.9218 52.2778C36.7882 52.2116 36.6546 52.1403 36.5263 52.064C36.4407 52.0131 36.3498 51.9621 36.2643 51.9061C36.1467 51.8298 36.0291 51.7534 35.9115 51.6669C35.826 51.6058 35.7458 51.5498 35.6656 51.4887C35.548 51.397 35.4411 51.3054 35.3288 51.2086C35.2593 51.1475 35.1845 51.0915 35.115 51.0253C34.9492 50.8726 34.7889 50.7148 34.6392 50.5468C34.5697 50.4755 34.5109 50.394 34.4467 50.3177C34.3612 50.2158 34.2703 50.1089 34.1901 50.002C34.1206 49.9103 34.0565 49.8187 33.9923 49.722C33.9228 49.6201 33.8587 49.5234 33.7945 49.4165C33.7304 49.3147 33.6716 49.2179 33.6128 49.111C33.554 49.0092 33.5005 48.9023 33.4471 48.7953C33.3936 48.6884 33.3402 48.5866 33.292 48.4797C33.2439 48.3626 33.1958 48.2455 33.153 48.1284C33.1156 48.0266 33.0729 47.9247 33.0354 47.8178C33.0354 47.8178 33.0141 48.2404 33.0408 48.9939C33.987 72.0372 66.8316 78.1519 77.0475 57.7917C77.1651 57.5422 77.288 57.2928 77.4056 57.0433C77.4484 56.9516 77.4912 56.8651 77.5339 56.7735L77.5446 56.7684Z" fill="url(#paint45_linear_2559_29728)"/>
<path d="M65.1261 34.005C74.2728 31.9939 80.7091 24.1634 80.7091 15.2231C80.7091 6.81728 73.5564 0 64.7252 0C55.8992 0 48.7412 6.81219 48.7412 15.2231V35.176C51.243 35.3694 57.7542 35.6291 65.1208 34.0101L65.1261 34.005ZM66.6016 26.4596C66.1846 27.0553 65.4736 27.4473 64.6664 27.4473C63.3834 27.4473 62.3409 26.4545 62.3409 25.2326C62.3409 24.9373 62.4051 24.6522 62.5174 24.3925C62.8648 23.5881 63.6934 23.0179 64.6664 23.0179C65.9494 23.0179 66.9918 24.0107 66.9918 25.2326C66.9918 25.6857 66.8475 26.1083 66.6016 26.4596ZM69.3921 22.188C69.1836 22.3815 68.9377 22.4782 68.6918 22.4782C68.3657 22.4782 68.0449 22.3153 67.8204 21.9996C67.0613 20.9152 65.944 20.294 64.7519 20.294C63.5598 20.294 62.4372 20.9152 61.6834 21.9996C61.2932 22.5546 60.5929 22.6411 60.1117 22.1931C59.6306 21.74 59.5558 20.9253 59.946 20.3704C60.0155 20.2686 60.0904 20.1718 60.1652 20.0751C61.3413 18.563 62.9931 17.7025 64.7519 17.7025C66.6229 17.7025 68.3764 18.675 69.5578 20.3704C69.948 20.9253 69.8732 21.745 69.3921 22.1931V22.188ZM73.4014 18.4255C73.1929 18.619 72.947 18.7157 72.7011 18.7157C72.375 18.7157 72.0543 18.5528 71.8298 18.2371C71.7121 18.064 71.5838 17.9011 71.4555 17.7382C69.7289 15.5489 67.3125 14.3066 64.7466 14.3066C61.9881 14.3066 59.4114 15.7424 57.6687 18.2422C57.2785 18.7972 56.5782 18.8837 56.097 18.4357C55.6159 17.9826 55.5411 17.1679 55.9313 16.613C56.2841 16.1039 56.669 15.6304 57.0807 15.1976C57.209 15.0601 57.3426 14.9227 57.4763 14.7903C59.5023 12.8149 62.0576 11.7151 64.7466 11.7151C68.1786 11.7151 71.3914 13.4971 73.5618 16.613C73.952 17.1679 73.8772 17.9877 73.3961 18.4357L73.4014 18.4255ZM52.0877 14.6579C51.6066 14.2048 51.5317 13.3902 51.922 12.8352C53.3119 10.8394 55.0012 9.22039 56.8829 8.02902C59.2671 6.52708 61.956 5.71756 64.7519 5.71756C69.7556 5.71756 74.4278 8.31413 77.5818 12.8352C77.9721 13.3902 77.8972 14.2099 77.4161 14.6579C77.2076 14.8514 76.9617 14.9481 76.7158 14.9481C76.3897 14.9481 76.069 14.7852 75.8445 14.4645C75.1709 13.4971 74.4118 12.6316 73.5939 11.8781C73.5725 11.8628 73.5564 11.8424 73.5351 11.8271C73.3693 11.6795 73.1983 11.5268 73.0165 11.374C72.9684 11.3333 72.9256 11.2977 72.8775 11.2569C70.52 9.35276 67.7028 8.30904 64.7573 8.30904C60.4325 8.30904 56.3911 10.5543 53.6647 14.4645C53.2745 15.0194 52.5742 15.106 52.093 14.6579H52.0877Z" fill="url(#paint46_linear_2559_29728)"/>
<path style="mix-blend-mode:overlay" opacity="0.77" d="M65.1261 34.005C74.2728 31.9939 80.7091 24.1634 80.7091 15.2231C80.7091 6.81728 73.5564 0 64.7252 0C55.8992 0 48.7412 6.81219 48.7412 15.2231V35.176C51.243 35.3694 57.7542 35.6291 65.1208 34.0101L65.1261 34.005ZM66.6016 26.4596C66.1846 27.0553 65.4736 27.4473 64.6664 27.4473C63.3834 27.4473 62.3409 26.4545 62.3409 25.2326C62.3409 24.9373 62.4051 24.6522 62.5174 24.3925C62.8648 23.5881 63.6934 23.0179 64.6664 23.0179C65.9494 23.0179 66.9918 24.0107 66.9918 25.2326C66.9918 25.6857 66.8475 26.1083 66.6016 26.4596ZM69.3921 22.188C69.1836 22.3815 68.9377 22.4782 68.6918 22.4782C68.3657 22.4782 68.0449 22.3153 67.8204 21.9996C67.0613 20.9152 65.944 20.294 64.7519 20.294C63.5598 20.294 62.4372 20.9152 61.6834 21.9996C61.2932 22.5546 60.5929 22.6411 60.1117 22.1931C59.6306 21.74 59.5558 20.9253 59.946 20.3704C60.0155 20.2686 60.0904 20.1718 60.1652 20.0751C61.3413 18.563 62.9931 17.7025 64.7519 17.7025C66.6229 17.7025 68.3764 18.675 69.5578 20.3704C69.948 20.9253 69.8732 21.745 69.3921 22.1931V22.188ZM73.4014 18.4255C73.1929 18.619 72.947 18.7157 72.7011 18.7157C72.375 18.7157 72.0543 18.5528 71.8298 18.2371C71.7121 18.064 71.5838 17.9011 71.4555 17.7382C69.7289 15.5489 67.3125 14.3066 64.7466 14.3066C61.9881 14.3066 59.4114 15.7424 57.6687 18.2422C57.2785 18.7972 56.5782 18.8837 56.097 18.4357C55.6159 17.9826 55.5411 17.1679 55.9313 16.613C56.2841 16.1039 56.669 15.6304 57.0807 15.1976C57.209 15.0601 57.3426 14.9227 57.4763 14.7903C59.5023 12.8149 62.0576 11.7151 64.7466 11.7151C68.1786 11.7151 71.3914 13.4971 73.5618 16.613C73.952 17.1679 73.8772 17.9877 73.3961 18.4357L73.4014 18.4255ZM52.0877 14.6579C51.6066 14.2048 51.5317 13.3902 51.922 12.8352C53.3119 10.8394 55.0012 9.22039 56.8829 8.02902C59.2671 6.52708 61.956 5.71756 64.7519 5.71756C69.7556 5.71756 74.4278 8.31413 77.5818 12.8352C77.9721 13.3902 77.8972 14.2099 77.4161 14.6579C77.2076 14.8514 76.9617 14.9481 76.7158 14.9481C76.3897 14.9481 76.069 14.7852 75.8445 14.4645C75.1709 13.4971 74.4118 12.6316 73.5939 11.8781C73.5725 11.8628 73.5564 11.8424 73.5351 11.8271C73.3693 11.6795 73.1983 11.5268 73.0165 11.374C72.9684 11.3333 72.9256 11.2977 72.8775 11.2569C70.52 9.35276 67.7028 8.30904 64.7573 8.30904C60.4325 8.30904 56.3911 10.5543 53.6647 14.4645C53.2745 15.0194 52.5742 15.106 52.093 14.6579H52.0877Z" fill="url(#paint47_linear_2559_29728)"/>
<path style="mix-blend-mode:overlay" opacity="0.77" d="M65.1261 34.005C74.2728 31.9939 80.7091 24.1634 80.7091 15.2231C80.7091 6.81728 73.5564 0 64.7252 0C55.8992 0 48.7412 6.81219 48.7412 15.2231V35.176C51.243 35.3694 57.7542 35.6291 65.1208 34.0101L65.1261 34.005ZM66.6016 26.4596C66.1846 27.0553 65.4736 27.4473 64.6664 27.4473C63.3834 27.4473 62.3409 26.4545 62.3409 25.2326C62.3409 24.9373 62.4051 24.6522 62.5174 24.3925C62.8648 23.5881 63.6934 23.0179 64.6664 23.0179C65.9494 23.0179 66.9918 24.0107 66.9918 25.2326C66.9918 25.6857 66.8475 26.1083 66.6016 26.4596ZM69.3921 22.188C69.1836 22.3815 68.9377 22.4782 68.6918 22.4782C68.3657 22.4782 68.0449 22.3153 67.8204 21.9996C67.0613 20.9152 65.944 20.294 64.7519 20.294C63.5598 20.294 62.4372 20.9152 61.6834 21.9996C61.2932 22.5546 60.5929 22.6411 60.1117 22.1931C59.6306 21.74 59.5558 20.9253 59.946 20.3704C60.0155 20.2686 60.0904 20.1718 60.1652 20.0751C61.3413 18.563 62.9931 17.7025 64.7519 17.7025C66.6229 17.7025 68.3764 18.675 69.5578 20.3704C69.948 20.9253 69.8732 21.745 69.3921 22.1931V22.188ZM73.4014 18.4255C73.1929 18.619 72.947 18.7157 72.7011 18.7157C72.375 18.7157 72.0543 18.5528 71.8298 18.2371C71.7121 18.064 71.5838 17.9011 71.4555 17.7382C69.7289 15.5489 67.3125 14.3066 64.7466 14.3066C61.9881 14.3066 59.4114 15.7424 57.6687 18.2422C57.2785 18.7972 56.5782 18.8837 56.097 18.4357C55.6159 17.9826 55.5411 17.1679 55.9313 16.613C56.2841 16.1039 56.669 15.6304 57.0807 15.1976C57.209 15.0601 57.3426 14.9227 57.4763 14.7903C59.5023 12.8149 62.0576 11.7151 64.7466 11.7151C68.1786 11.7151 71.3914 13.4971 73.5618 16.613C73.952 17.1679 73.8772 17.9877 73.3961 18.4357L73.4014 18.4255ZM52.0877 14.6579C51.6066 14.2048 51.5317 13.3902 51.922 12.8352C53.3119 10.8394 55.0012 9.22039 56.8829 8.02902C59.2671 6.52708 61.956 5.71756 64.7519 5.71756C69.7556 5.71756 74.4278 8.31413 77.5818 12.8352C77.9721 13.3902 77.8972 14.2099 77.4161 14.6579C77.2076 14.8514 76.9617 14.9481 76.7158 14.9481C76.3897 14.9481 76.069 14.7852 75.8445 14.4645C75.1709 13.4971 74.4118 12.6316 73.5939 11.8781C73.5725 11.8628 73.5564 11.8424 73.5351 11.8271C73.3693 11.6795 73.1983 11.5268 73.0165 11.374C72.9684 11.3333 72.9256 11.2977 72.8775 11.2569C70.52 9.35276 67.7028 8.30904 64.7573 8.30904C60.4325 8.30904 56.3911 10.5543 53.6647 14.4645C53.2745 15.0194 52.5742 15.106 52.093 14.6579H52.0877Z" fill="url(#paint48_linear_2559_29728)"/>
<path d="M32.7148 46.1885C32.7254 46.2852 32.736 46.3819 32.7465 46.4736C32.736 46.3769 32.7254 46.2801 32.7148 46.1885Z" fill="url(#paint49_linear_2559_29728)"/>
<path d="M32.9655 47.5173C32.896 47.2627 32.8372 47.003 32.7891 46.7383C32.8318 47.003 32.8906 47.2627 32.9655 47.5122V47.5173Z" fill="url(#paint50_linear_2559_29728)"/>
<path d="M32.9651 47.5122C32.8956 47.2577 32.8368 46.998 32.7887 46.7384C32.7727 46.6518 32.7566 46.5653 32.7459 46.4736C32.7353 46.3769 32.7246 46.2802 32.7139 46.1885C32.6925 45.9696 32.6764 45.7456 32.6764 45.5215V15.2231C32.6764 6.81219 25.5238 0 16.6978 0C7.8719 0 0.713867 6.81219 0.713867 15.2231V26.312C26.6464 29.5297 32.2648 45.1702 32.9651 47.5122Z" fill="url(#paint51_linear_2559_29728)"/>
<path d="M32.9651 47.5122C32.8956 47.2577 32.8368 46.998 32.7887 46.7384C32.7727 46.6518 32.7566 46.5653 32.7459 46.4736C32.7353 46.3769 32.7246 46.2802 32.7139 46.1885C32.6925 45.9696 32.6764 45.7456 32.6764 45.5215V15.2231C32.6764 6.81219 25.5238 0 16.6978 0C7.8719 0 0.713867 6.81219 0.713867 15.2231V26.312C26.6464 29.5297 32.2648 45.1702 32.9651 47.5122Z" fill="url(#paint52_linear_2559_29728)"/>
<defs>
<linearGradient id="paint0_linear_2559_29728" x1="19.1368" y1="75.2245" x2="81.5386" y2="9.70461" gradientUnits="userSpaceOnUse">
<stop stop-color="#7F44E5"/>
<stop offset="0.33" stop-color="#4F768F"/>
<stop offset="0.66" stop-color="#24A342"/>
<stop offset="0.89" stop-color="#0AC012"/>
<stop offset="1" stop-color="#00CB00"/>
</linearGradient>
<linearGradient id="paint1_linear_2559_29728" x1="19.3931" y1="75.4685" x2="81.7889" y2="9.94863" gradientUnits="userSpaceOnUse">
<stop stop-color="#7F44E5"/>
<stop offset="0.33" stop-color="#4F768F"/>
<stop offset="0.66" stop-color="#24A342"/>
<stop offset="0.89" stop-color="#0AC012"/>
<stop offset="1" stop-color="#00CB00"/>
</linearGradient>
<linearGradient id="paint2_linear_2559_29728" x1="33.5185" y1="88.36" x2="95.9531" y2="23.6211" gradientUnits="userSpaceOnUse">
<stop stop-color="#7F44E5"/>
<stop offset="0.33" stop-color="#4F768F"/>
<stop offset="0.66" stop-color="#24A342"/>
<stop offset="0.89" stop-color="#0AC012"/>
<stop offset="1" stop-color="#00CB00"/>
</linearGradient>
<linearGradient id="paint3_linear_2559_29728" x1="19.201" y1="74.9343" x2="81.6305" y2="10.1937" gradientUnits="userSpaceOnUse">
<stop stop-color="#7F44E5"/>
<stop offset="0.33" stop-color="#4F768F"/>
<stop offset="0.66" stop-color="#24A342"/>
<stop offset="0.89" stop-color="#0AC012"/>
<stop offset="1" stop-color="#00CB00"/>
</linearGradient>
<linearGradient id="paint4_linear_2559_29728" x1="19.7346" y1="75.7947" x2="82.1312" y2="10.2747" gradientUnits="userSpaceOnUse">
<stop stop-color="#7F44E5"/>
<stop offset="0.33" stop-color="#4F768F"/>
<stop offset="0.66" stop-color="#24A342"/>
<stop offset="0.89" stop-color="#0AC012"/>
<stop offset="1" stop-color="#00CB00"/>
</linearGradient>
<linearGradient id="paint5_linear_2559_29728" x1="19.7615" y1="75.8199" x2="82.1628" y2="10.2996" gradientUnits="userSpaceOnUse">
<stop stop-color="#7F44E5"/>
<stop offset="0.33" stop-color="#4F768F"/>
<stop offset="0.66" stop-color="#24A342"/>
<stop offset="0.89" stop-color="#0AC012"/>
<stop offset="1" stop-color="#00CB00"/>
</linearGradient>
<linearGradient id="paint6_linear_2559_29728" x1="19.0183" y1="75.1072" x2="81.4147" y2="9.59236" gradientUnits="userSpaceOnUse">
<stop stop-color="#7F44E5"/>
<stop offset="0.33" stop-color="#4F768F"/>
<stop offset="0.66" stop-color="#24A342"/>
<stop offset="0.89" stop-color="#0AC012"/>
<stop offset="1" stop-color="#00CB00"/>
</linearGradient>
<linearGradient id="paint7_linear_2559_29728" x1="19.3069" y1="75.387" x2="81.708" y2="9.87129" gradientUnits="userSpaceOnUse">
<stop stop-color="#7F44E5"/>
<stop offset="0.33" stop-color="#4F768F"/>
<stop offset="0.66" stop-color="#24A342"/>
<stop offset="0.89" stop-color="#0AC012"/>
<stop offset="1" stop-color="#00CB00"/>
</linearGradient>
<linearGradient id="paint8_linear_2559_29728" x1="19.863" y1="75.9169" x2="82.2647" y2="10.3963" gradientUnits="userSpaceOnUse">
<stop stop-color="#7F44E5"/>
<stop offset="0.33" stop-color="#4F768F"/>
<stop offset="0.66" stop-color="#24A342"/>
<stop offset="0.89" stop-color="#0AC012"/>
<stop offset="1" stop-color="#00CB00"/>
</linearGradient>
<linearGradient id="paint9_linear_2559_29728" x1="19.9428" y1="75.9931" x2="82.3389" y2="10.4728" gradientUnits="userSpaceOnUse">
<stop stop-color="#7F44E5"/>
<stop offset="0.33" stop-color="#4F768F"/>
<stop offset="0.66" stop-color="#24A342"/>
<stop offset="0.89" stop-color="#0AC012"/>
<stop offset="1" stop-color="#00CB00"/>
</linearGradient>
<linearGradient id="paint10_linear_2559_29728" x1="18.6655" y1="74.7767" x2="81.0684" y2="9.25601" gradientUnits="userSpaceOnUse">
<stop stop-color="#7F44E5"/>
<stop offset="0.33" stop-color="#4F768F"/>
<stop offset="0.66" stop-color="#24A342"/>
<stop offset="0.89" stop-color="#0AC012"/>
<stop offset="1" stop-color="#00CB00"/>
</linearGradient>
<linearGradient id="paint11_linear_2559_29728" x1="13.0474" y1="69.4253" x2="75.4487" y2="3.90507" gradientUnits="userSpaceOnUse">
<stop stop-color="#7F44E5"/>
<stop offset="0.33" stop-color="#4F768F"/>
<stop offset="0.66" stop-color="#24A342"/>
<stop offset="0.89" stop-color="#0AC012"/>
<stop offset="1" stop-color="#00CB00"/>
</linearGradient>
<linearGradient id="paint12_linear_2559_29728" x1="19.9704" y1="76.0185" x2="82.3716" y2="10.4983" gradientUnits="userSpaceOnUse">
<stop stop-color="#7F44E5"/>
<stop offset="0.33" stop-color="#4F768F"/>
<stop offset="0.66" stop-color="#24A342"/>
<stop offset="0.89" stop-color="#0AC012"/>
<stop offset="1" stop-color="#00CB00"/>
</linearGradient>
<linearGradient id="paint13_linear_2559_29728" x1="12.0473" y1="68.4734" x2="74.4489" y2="2.95334" gradientUnits="userSpaceOnUse">
<stop stop-color="#7F44E5"/>
<stop offset="0.33" stop-color="#4F768F"/>
<stop offset="0.66" stop-color="#24A342"/>
<stop offset="0.89" stop-color="#0AC012"/>
<stop offset="1" stop-color="#00CB00"/>
</linearGradient>
<linearGradient id="paint14_linear_2559_29728" x1="18.3074" y1="75.5001" x2="83.9056" y2="9.90146" gradientUnits="userSpaceOnUse">
<stop stop-color="#7F44E5"/>
<stop offset="0.33" stop-color="#4F768F"/>
<stop offset="0.66" stop-color="#24A342"/>
<stop offset="0.89" stop-color="#0AC012"/>
<stop offset="1" stop-color="#00CB00"/>
</linearGradient>
<linearGradient id="paint15_linear_2559_29728" x1="11.2006" y1="67.4093" x2="73.6304" y2="2.66791" gradientUnits="userSpaceOnUse">
<stop stop-color="#7F44E5"/>
<stop offset="0.33" stop-color="#4F768F"/>
<stop offset="0.66" stop-color="#24A342"/>
<stop offset="0.89" stop-color="#0AC012"/>
<stop offset="1" stop-color="#00CB00"/>
</linearGradient>
<linearGradient id="paint16_linear_2559_29728" x1="12.4751" y1="68.8806" x2="74.8765" y2="3.36018" gradientUnits="userSpaceOnUse">
<stop stop-color="#7F44E5"/>
<stop offset="0.33" stop-color="#4F768F"/>
<stop offset="0.66" stop-color="#24A342"/>
<stop offset="0.89" stop-color="#0AC012"/>
<stop offset="1" stop-color="#00CB00"/>
</linearGradient>
<linearGradient id="paint17_linear_2559_29728" x1="37.7821" y1="92.9829" x2="100.184" y2="27.4623" gradientUnits="userSpaceOnUse">
<stop stop-color="#7F44E5"/>
<stop offset="0.33" stop-color="#4F768F"/>
<stop offset="0.66" stop-color="#24A342"/>
<stop offset="0.89" stop-color="#0AC012"/>
<stop offset="1" stop-color="#00CB00"/>
</linearGradient>
<linearGradient id="paint18_linear_2559_29728" x1="15.3032" y1="71.5741" x2="77.7051" y2="6.05905" gradientUnits="userSpaceOnUse">
<stop stop-color="#7F44E5"/>
<stop offset="0.33" stop-color="#4F768F"/>
<stop offset="0.66" stop-color="#24A342"/>
<stop offset="0.89" stop-color="#0AC012"/>
<stop offset="1" stop-color="#00CB00"/>
</linearGradient>
<linearGradient id="paint19_linear_2559_29728" x1="31.87" y1="56.2898" x2="78.757" y2="7.06024" gradientUnits="userSpaceOnUse">
<stop/>
<stop offset="0.04" stop-opacity="0.93"/>
<stop offset="1" stop-opacity="0"/>
</linearGradient>
<linearGradient id="paint20_linear_2559_29728" x1="28.1224" y1="52.7154" x2="75.008" y2="3.48539" gradientUnits="userSpaceOnUse">
<stop/>
<stop offset="0.04" stop-opacity="0.93"/>
<stop offset="1" stop-opacity="0"/>
</linearGradient>
<linearGradient id="paint21_linear_2559_29728" x1="31.3568" y1="55.7959" x2="78.2429" y2="6.56628" gradientUnits="userSpaceOnUse">
<stop/>
<stop offset="0.04" stop-opacity="0.93"/>
<stop offset="1" stop-opacity="0"/>
</linearGradient>
<linearGradient id="paint22_linear_2559_29728" x1="35.1516" y1="59.4109" x2="82.039" y2="10.181" gradientUnits="userSpaceOnUse">
<stop/>
<stop offset="0.04" stop-opacity="0.93"/>
<stop offset="1" stop-opacity="0"/>
</linearGradient>
<linearGradient id="paint23_linear_2559_29728" x1="32.9172" y1="57.2877" x2="79.8035" y2="8.0528" gradientUnits="userSpaceOnUse">
<stop/>
<stop offset="0.04" stop-opacity="0.93"/>
<stop offset="1" stop-opacity="0"/>
</linearGradient>
<linearGradient id="paint24_linear_2559_29728" x1="29.6087" y1="54.1309" x2="76.4945" y2="4.90132" gradientUnits="userSpaceOnUse">
<stop/>
<stop offset="0.04" stop-opacity="0.93"/>
<stop offset="1" stop-opacity="0"/>
</linearGradient>
<linearGradient id="paint25_linear_2559_29728" x1="29.1005" y1="53.6523" x2="75.9866" y2="4.42251" gradientUnits="userSpaceOnUse">
<stop/>
<stop offset="0.04" stop-opacity="0.93"/>
<stop offset="1" stop-opacity="0"/>
</linearGradient>
<linearGradient id="paint26_linear_2559_29728" x1="28.6091" y1="53.179" x2="75.4955" y2="3.94909" gradientUnits="userSpaceOnUse">
<stop/>
<stop offset="0.04" stop-opacity="0.93"/>
<stop offset="1" stop-opacity="0"/>
</linearGradient>
<linearGradient id="paint27_linear_2559_29728" x1="33.9652" y1="58.2855" x2="80.8579" y2="9.05573" gradientUnits="userSpaceOnUse">
<stop/>
<stop offset="0.04" stop-opacity="0.93"/>
<stop offset="1" stop-opacity="0"/>
</linearGradient>
<linearGradient id="paint28_linear_2559_29728" x1="30.1318" y1="54.63" x2="77.0185" y2="5.40007" gradientUnits="userSpaceOnUse">
<stop/>
<stop offset="0.04" stop-opacity="0.93"/>
<stop offset="1" stop-opacity="0"/>
</linearGradient>
<linearGradient id="paint29_linear_2559_29728" x1="32.3828" y1="56.7785" x2="79.2688" y2="7.54374" gradientUnits="userSpaceOnUse">
<stop/>
<stop offset="0.04" stop-opacity="0.93"/>
<stop offset="1" stop-opacity="0"/>
</linearGradient>
<linearGradient id="paint30_linear_2559_29728" x1="35.7384" y1="59.8179" x2="82.6496" y2="11.1733" gradientUnits="userSpaceOnUse">
<stop/>
<stop offset="0.04" stop-opacity="0.93"/>
<stop offset="1" stop-opacity="0"/>
</linearGradient>
<linearGradient id="paint31_linear_2559_29728" x1="53.455" y1="76.5321" x2="100.365" y2="27.8858" gradientUnits="userSpaceOnUse">
<stop/>
<stop offset="0.04" stop-opacity="0.93"/>
<stop offset="1" stop-opacity="0"/>
</linearGradient>
<linearGradient id="paint32_linear_2559_29728" x1="51.1585" y1="74.3079" x2="98.0752" y2="25.6661" gradientUnits="userSpaceOnUse">
<stop/>
<stop offset="0.04" stop-opacity="0.93"/>
<stop offset="1" stop-opacity="0"/>
</linearGradient>
<linearGradient id="paint33_linear_2559_29728" x1="36.4018" y1="60.4856" x2="83.3158" y2="11.8392" gradientUnits="userSpaceOnUse">
<stop/>
<stop offset="0.04" stop-opacity="0.93"/>
<stop offset="1" stop-opacity="0"/>
</linearGradient>
<linearGradient id="paint34_linear_2559_29728" x1="30.8274" y1="55.2969" x2="77.7137" y2="6.067" gradientUnits="userSpaceOnUse">
<stop/>
<stop offset="0.04" stop-opacity="0.93"/>
<stop offset="1" stop-opacity="0"/>
</linearGradient>
<linearGradient id="paint35_linear_2559_29728" x1="55.1457" y1="78.4573" x2="102.032" y2="29.2277" gradientUnits="userSpaceOnUse">
<stop/>
<stop offset="0.04" stop-opacity="0.93"/>
<stop offset="1" stop-opacity="0"/>
</linearGradient>
<linearGradient id="paint36_linear_2559_29728" x1="34.8155" y1="59.3836" x2="84.0806" y2="10.0952" gradientUnits="userSpaceOnUse">
<stop/>
<stop offset="0.04" stop-opacity="0.93"/>
<stop offset="1" stop-opacity="0"/>
</linearGradient>
<linearGradient id="paint37_linear_2559_29728" x1="36.395" y1="60.4855" x2="83.3088" y2="11.8339" gradientUnits="userSpaceOnUse">
<stop/>
<stop offset="0.04" stop-opacity="0.93"/>
<stop offset="1" stop-opacity="0"/>
</linearGradient>
<linearGradient id="paint38_linear_2559_29728" x1="36.3358" y1="60.4337" x2="83.245" y2="11.7922" gradientUnits="userSpaceOnUse">
<stop/>
<stop offset="0.04" stop-opacity="0.93"/>
<stop offset="1" stop-opacity="0"/>
</linearGradient>
<linearGradient id="paint39_linear_2559_29728" x1="35.9594" y1="60.1794" x2="82.846" y2="10.9496" gradientUnits="userSpaceOnUse">
<stop/>
<stop offset="0.04" stop-opacity="0.93"/>
<stop offset="1" stop-opacity="0"/>
</linearGradient>
<linearGradient id="paint40_linear_2559_29728" x1="36.2767" y1="60.353" x2="83.1896" y2="11.7062" gradientUnits="userSpaceOnUse">
<stop/>
<stop offset="0.04" stop-opacity="0.93"/>
<stop offset="1" stop-opacity="0"/>
</linearGradient>
<linearGradient id="paint41_linear_2559_29728" x1="36.1428" y1="60.2153" x2="83.0551" y2="11.5715" gradientUnits="userSpaceOnUse">
<stop/>
<stop offset="0.04" stop-opacity="0.93"/>
<stop offset="1" stop-opacity="0"/>
</linearGradient>
<linearGradient id="paint42_linear_2559_29728" x1="36.3659" y1="60.4394" x2="83.2782" y2="11.7978" gradientUnits="userSpaceOnUse">
<stop/>
<stop offset="0.04" stop-opacity="0.93"/>
<stop offset="1" stop-opacity="0"/>
</linearGradient>
<linearGradient id="paint43_linear_2559_29728" x1="35.9616" y1="60.0418" x2="82.8725" y2="11.3973" gradientUnits="userSpaceOnUse">
<stop/>
<stop offset="0.04" stop-opacity="0.93"/>
<stop offset="1" stop-opacity="0"/>
</linearGradient>
<linearGradient id="paint44_linear_2559_29728" x1="25.8133" y1="81.5784" x2="88.2096" y2="16.0633" gradientUnits="userSpaceOnUse">
<stop stop-color="#7F44E5"/>
<stop offset="0.33" stop-color="#4F768F"/>
<stop offset="0.66" stop-color="#24A342"/>
<stop offset="0.89" stop-color="#0AC012"/>
<stop offset="1" stop-color="#00CB00"/>
</linearGradient>
<linearGradient id="paint45_linear_2559_29728" x1="42.118" y1="66.0498" x2="89.0042" y2="16.8201" gradientUnits="userSpaceOnUse">
<stop/>
<stop offset="0.04" stop-opacity="0.93"/>
<stop offset="1" stop-opacity="0"/>
</linearGradient>
<linearGradient id="paint46_linear_2559_29728" x1="10.8822" y1="67.3633" x2="73.2836" y2="1.84286" gradientUnits="userSpaceOnUse">
<stop stop-color="#7F44E5"/>
<stop offset="0.33" stop-color="#4F768F"/>
<stop offset="0.66" stop-color="#24A342"/>
<stop offset="0.89" stop-color="#0AC012"/>
<stop offset="1" stop-color="#00CB00"/>
</linearGradient>
<linearGradient id="paint47_linear_2559_29728" x1="27.1923" y1="51.8297" x2="74.0785" y2="2.59991" gradientUnits="userSpaceOnUse">
<stop/>
<stop offset="0.04" stop-opacity="0.93"/>
<stop offset="1" stop-opacity="0"/>
</linearGradient>
<linearGradient id="paint48_linear_2559_29728" x1="64.7252" y1="35.3134" x2="64.7252" y2="0" gradientUnits="userSpaceOnUse">
<stop/>
<stop offset="0.04" stop-opacity="0.93"/>
<stop offset="1" stop-opacity="0"/>
</linearGradient>
<linearGradient id="paint49_linear_2559_29728" x1="32.7307" y1="47.5173" x2="32.7307" y2="0.000174018" gradientUnits="userSpaceOnUse">
<stop stop-color="white"/>
<stop offset="0.1" stop-color="white" stop-opacity="0.81"/>
<stop offset="0.24" stop-color="white" stop-opacity="0.6"/>
<stop offset="0.37" stop-color="white" stop-opacity="0.42"/>
<stop offset="0.5" stop-color="white" stop-opacity="0.27"/>
<stop offset="0.63" stop-color="white" stop-opacity="0.15"/>
<stop offset="0.76" stop-color="white" stop-opacity="0.07"/>
<stop offset="0.88" stop-color="white" stop-opacity="0.02"/>
<stop offset="1" stop-color="white" stop-opacity="0"/>
</linearGradient>
<linearGradient id="paint50_linear_2559_29728" x1="32.8746" y1="47.5173" x2="32.8746" y2="-5.39152e-05" gradientUnits="userSpaceOnUse">
<stop stop-color="white"/>
<stop offset="0.1" stop-color="white" stop-opacity="0.81"/>
<stop offset="0.24" stop-color="white" stop-opacity="0.6"/>
<stop offset="0.37" stop-color="white" stop-opacity="0.42"/>
<stop offset="0.5" stop-color="white" stop-opacity="0.27"/>
<stop offset="0.63" stop-color="white" stop-opacity="0.15"/>
<stop offset="0.76" stop-color="white" stop-opacity="0.07"/>
<stop offset="0.88" stop-color="white" stop-opacity="0.02"/>
<stop offset="1" stop-color="white" stop-opacity="0"/>
</linearGradient>
<linearGradient id="paint51_linear_2559_29728" x1="-6.69008" y1="50.6281" x2="55.706" y2="-14.892" gradientUnits="userSpaceOnUse">
<stop stop-color="#7F44E5"/>
<stop offset="0.33" stop-color="#4F768F"/>
<stop offset="0.66" stop-color="#24A342"/>
<stop offset="0.89" stop-color="#0AC012"/>
<stop offset="1" stop-color="#00CB00"/>
</linearGradient>
<linearGradient id="paint52_linear_2559_29728" x1="16.8368" y1="47.5122" x2="16.8368" y2="0" gradientUnits="userSpaceOnUse">
<stop stop-color="white"/>
<stop offset="0.1" stop-color="white" stop-opacity="0.81"/>
<stop offset="0.24" stop-color="white" stop-opacity="0.6"/>
<stop offset="0.37" stop-color="white" stop-opacity="0.42"/>
<stop offset="0.5" stop-color="white" stop-opacity="0.27"/>
<stop offset="0.63" stop-color="white" stop-opacity="0.15"/>
<stop offset="0.76" stop-color="white" stop-opacity="0.07"/>
<stop offset="0.88" stop-color="white" stop-opacity="0.02"/>
<stop offset="1" stop-color="white" stop-opacity="0"/>
</linearGradient>
</defs>
</svg>
