<svg width="202" height="52" viewBox="0 0 202 52" fill="none" xmlns="http://www.w3.org/2000/svg">
<g clip-path="url(#clip0_2599_17877)">
<path d="M32.3896 27.8045C34.0221 27.8045 35.3455 29.121 35.3455 30.7452V32.3397C35.3455 36.8067 34.8374 40.3538 33.8219 42.981C32.8058 45.6085 30.9724 47.746 28.3213 49.393C25.67 51.0405 22.1908 51.8639 17.8839 51.8639C13.577 51.8639 10.2754 51.1462 7.61413 49.7113C4.95227 48.2765 3.05307 46.1997 1.9154 43.4811C0.777534 40.7633 0.208984 37.0494 0.208984 32.3399V9.60218C0.208984 7.97803 1.53234 6.6615 3.1649 6.6615C4.79747 6.6615 6.12082 7.97803 6.12082 9.60218V32.3096C6.12082 36.1703 6.48125 39.015 7.20268 40.8439C7.92353 42.6734 9.16306 44.083 10.9207 45.073C12.6776 46.0636 14.8261 46.5586 17.366 46.5586C21.7133 46.5586 24.8116 45.5785 26.6605 43.6178C28.5089 41.6576 29.4336 37.8879 29.4336 32.3096V30.7454C29.4336 29.1212 30.757 27.8047 32.3896 27.8047V27.8045Z" fill="url(#paint0_linear_2599_17877)"/>
<path d="M48.4461 9.55926C48.1473 9.32816 47.83 9.0923 47.4941 8.85376C47.816 9.08199 48.1342 9.31595 48.4461 9.55926Z" fill="#1D1D1B"/>
<path d="M18.0303 3.61963C14.5919 5.47851 11.5073 8.01406 8.96592 11.1389C8.25715 12.0106 8.39277 13.289 9.2688 13.9941C10.145 14.699 11.4298 14.5643 12.1388 13.6928C17.117 7.57095 24.5026 4.05988 32.4013 4.05988C37.7858 4.05988 42.9298 5.69434 47.2373 8.67204C41.9882 5.02452 32.4431 0.875886 18.0303 3.61944V3.61963Z" fill="url(#paint1_linear_2599_17877)"/>
<path d="M55.8367 11.1391C50.0798 4.0599 41.5376 0 32.4013 0C27.298 0 22.3809 1.26787 18.0303 3.61966C32.4431 0.876099 41.9882 5.02474 47.2373 8.67225C47.3236 8.73179 47.409 8.79286 47.4945 8.85354C47.8304 9.09227 48.1477 9.32795 48.4465 9.55904C48.4816 9.58652 48.5171 9.61362 48.552 9.64129C51.0048 11.5565 52.1862 13.1218 52.1862 13.1218C52.1862 13.1218 51.0046 11.5565 48.552 9.64129C50.0507 10.8231 51.4316 12.1774 52.6642 13.6928C53.0672 14.1886 53.6571 14.4462 54.2517 14.446C54.7025 14.446 55.1563 14.2981 55.5338 13.9941C56.4102 13.289 56.5458 12.0106 55.8367 11.1389V11.1391Z" fill="url(#paint2_linear_2599_17877)"/>
<path d="M18.3941 14.8175C17.6487 15.4982 16.9459 16.2352 16.2974 17.0323C15.5884 17.9038 15.7235 19.1822 16.5993 19.8877C17.4753 20.593 18.7601 20.4588 19.4695 19.5873C22.6535 15.6749 27.3668 13.4307 32.4007 13.4307C37.0876 13.4307 41.495 15.378 44.651 18.8043C43.4201 17.3435 35.2563 8.73251 18.3941 14.8175Z" fill="url(#paint3_linear_2599_17877)"/>
<path d="M48.5042 17.0325C44.5415 12.1633 38.6722 9.37067 32.4011 9.37067C27.4833 9.37067 22.8169 11.0944 19.119 14.1838C18.8733 14.3891 18.632 14.6007 18.3945 14.8175C35.2567 8.73253 43.4205 17.3435 44.6514 18.8043C44.885 19.0579 45.1133 19.3179 45.3327 19.5875C45.7361 20.0829 46.3252 20.3403 46.9198 20.3401C47.371 20.3401 47.825 20.1922 48.2027 19.8879C49.0784 19.1824 49.2138 17.904 48.5044 17.0325H48.5042Z" fill="url(#paint4_linear_2599_17877)"/>
<path d="M24.0213 22.4555C23.8846 22.6065 23.7511 22.7609 23.6216 22.92C22.9126 23.7914 23.0477 25.0697 23.9235 25.7752C24.7995 26.4805 26.0843 26.3464 26.7937 25.4749C28.1763 23.7759 30.2203 22.8015 32.4015 22.8015C34.5827 22.8015 36.6267 23.7759 38.0095 25.4749C38.0095 25.4749 33.6324 19.5387 24.0213 22.4555Z" fill="url(#paint5_linear_2599_17877)"/>
<path d="M41.1814 22.9198C39.0199 20.2642 35.82 18.7412 32.4016 18.7412C29.1877 18.7412 26.1674 20.0877 24.0215 22.4555C33.6327 19.5385 38.0096 25.4748 38.0096 25.4748C38.413 25.9702 39.0021 26.2275 39.5967 26.2275C40.0479 26.2275 40.5019 26.0794 40.8796 25.775C41.7557 25.0693 41.8907 23.7911 41.1814 22.9198Z" fill="url(#paint6_linear_2599_17877)"/>
<path d="M33.2173 32.305C32.6917 32.0592 32.2808 31.5817 32.1176 31.0274C31.9938 30.6077 32.0013 30.14 31.7669 29.77C31.5498 29.4272 31.1418 29.2248 30.7346 29.2171C30.349 29.2101 29.9732 29.3694 29.6784 29.6175C29.5372 29.96 29.458 30.3346 29.458 30.7278C29.458 32.345 30.7758 33.656 32.4015 33.656C33.4238 33.656 34.3239 33.137 34.8514 32.35C34.3298 32.5549 33.725 32.5424 33.2173 32.3048V32.305Z" fill="url(#paint7_linear_2599_17877)"/>
<path d="M32.4018 27.7997C31.1714 27.7997 30.1186 28.5514 29.6787 29.6177C29.9735 29.3696 30.3495 29.2103 30.7349 29.2174C31.1421 29.2248 31.5501 29.4273 31.7672 29.7702C32.0016 30.1402 31.9941 30.6079 32.1179 31.0276C32.2813 31.5819 32.6922 32.0592 33.2176 32.3052C33.7251 32.5428 34.3301 32.5553 34.8517 32.3504C35.163 31.8859 35.3452 31.3283 35.3452 30.7282C35.3452 29.1109 34.0274 27.7999 32.4018 27.7999V27.7997Z" fill="url(#paint8_linear_2599_17877)"/>
</g>
<path d="M127.245 11.4071L114.711 48.7083C114.078 50.5932 112.304 51.8641 110.306 51.8641C108.32 51.8641 106.554 50.6073 105.912 48.7378L94.8607 16.5617L83.83 48.6783C83.1756 50.5839 81.3753 51.8641 79.3513 51.8641C77.3159 51.8641 75.5078 50.5692 74.8628 48.6483L62.4532 11.7163C61.7824 9.71964 63.2759 7.65649 65.3919 7.65649C66.7269 7.65649 67.9118 8.50705 68.3322 9.76707L79.5125 43.2522C79.5492 43.3618 79.7048 43.3629 79.7426 43.2539L91.1799 10.3903C91.7494 8.75404 93.2987 7.65649 95.0393 7.65649C96.792 7.65649 98.349 8.76876 98.9091 10.4208L110.108 43.4409C110.145 43.5505 110.301 43.5505 110.338 43.4409L121.818 9.59369C122.211 8.43562 123.302 7.65649 124.53 7.65649C126.485 7.65649 127.865 9.56261 127.245 11.4071Z" fill="#5446E6"/>
<path d="M140.568 7.65649C142.322 7.65649 143.742 9.07027 143.742 10.8139V48.7061C143.742 50.4503 142.321 51.8636 140.568 51.8636C138.815 51.8636 137.395 50.4498 137.395 48.7061V10.8139C137.395 9.06972 138.816 7.65649 140.568 7.65649Z" fill="#5446E6"/>
<path d="M160.09 14.8279V26.6075C160.09 27.686 160.968 28.56 162.052 28.56H179.641C181.149 28.56 182.371 29.7758 182.371 31.2758C182.371 32.7757 181.149 33.9915 179.641 33.9915H161.734C160.826 33.9915 160.09 34.7238 160.09 35.6272V48.7061C160.09 50.4503 158.669 51.8636 156.916 51.8636C155.163 51.8636 153.742 50.4498 153.742 48.7061V10.8308C153.742 9.07736 155.171 7.65649 156.933 7.65649H182.34C183.865 7.65649 185.102 8.88653 185.102 10.4039C185.102 11.9213 183.865 13.1513 182.34 13.1513H161.776C160.845 13.1513 160.09 13.9021 160.09 14.8284L160.09 14.8279Z" fill="#5446E6"/>
<path d="M198.275 7.65649C200.029 7.65649 201.449 9.07027 201.449 10.8139V48.7061C201.449 50.4503 200.028 51.8636 198.275 51.8636C196.522 51.8636 195.102 50.4498 195.102 48.7061V10.8139C195.102 9.06972 196.523 7.65649 198.275 7.65649Z" fill="#5446E6"/>
<defs>
<linearGradient id="paint0_linear_2599_17877" x1="0.208984" y1="29.2628" x2="35.3455" y2="29.2628" gradientUnits="userSpaceOnUse">
<stop stop-color="#7F47DD"/>
<stop offset="0.74" stop-color="#5147DD"/>
</linearGradient>
<linearGradient id="paint1_linear_2599_17877" x1="16.442" y1="21.3861" x2="34.1071" y2="3.6295" gradientUnits="userSpaceOnUse">
<stop stop-color="#7F47DD"/>
<stop offset="0.74" stop-color="#5147DD"/>
</linearGradient>
<linearGradient id="paint2_linear_2599_17877" x1="36.5686" y1="9.08101" x2="45.1154" y2="-0.944739" gradientUnits="userSpaceOnUse">
<stop offset="0.35" stop-color="#00B837"/>
<stop offset="1" stop-color="#00D437"/>
</linearGradient>
<linearGradient id="paint3_linear_2599_17877" x1="20.4115" y1="27.851" x2="29.7926" y2="18.4213" gradientUnits="userSpaceOnUse">
<stop stop-color="#7F47DD"/>
<stop offset="0.74" stop-color="#5147DD"/>
</linearGradient>
<linearGradient id="paint4_linear_2599_17877" x1="31.5205" y1="19.1295" x2="42.4064" y2="8.18719" gradientUnits="userSpaceOnUse">
<stop offset="0.35" stop-color="#00B837"/>
<stop offset="1" stop-color="#00D437"/>
</linearGradient>
<linearGradient id="paint5_linear_2599_17877" x1="24.409" y1="30.5376" x2="32.6379" y2="22.2659" gradientUnits="userSpaceOnUse">
<stop stop-color="#7F47DD"/>
<stop offset="0.74" stop-color="#5147DD"/>
</linearGradient>
<linearGradient id="paint6_linear_2599_17877" x1="30.9778" y1="25.5777" x2="38.0269" y2="18.492" gradientUnits="userSpaceOnUse">
<stop offset="0.35" stop-color="#00B837"/>
<stop offset="1" stop-color="#00D437"/>
</linearGradient>
<linearGradient id="paint7_linear_2599_17877" x1="29.1726" y1="32.5313" x2="32.9538" y2="30.8851" gradientUnits="userSpaceOnUse">
<stop stop-color="#7F47DD"/>
<stop offset="0.74" stop-color="#5147DD"/>
</linearGradient>
<linearGradient id="paint8_linear_2599_17877" x1="31.519" y1="30.9629" x2="34.8078" y2="29.2813" gradientUnits="userSpaceOnUse">
<stop offset="0.35" stop-color="#00B837"/>
<stop offset="1" stop-color="#00D437"/>
</linearGradient>
<clipPath id="clip0_2599_17877">
<rect width="56.0819" height="51.8641" fill="white" transform="translate(0.208984)"/>
</clipPath>
</defs>
</svg>
